<?xml version="1.0" encoding="UTF-8"?>
<svg id="Layer_1" data-name="Layer 1" xmlns="http://www.w3.org/2000/svg" viewBox="0 0 317 155.88">
  <defs>
    <style>
      .cls-1 {
        fill: #fff;
        stroke-width: 0px;
      }
    </style>
  </defs>
  <path class="cls-1" d="M278.13,76.88h-5.02c2.46-6.33,3.82-13.21,3.82-20.41,0-31.19-25.28-56.47-56.47-56.47-19.86,0-37.31,10.26-47.38,25.76-12.34-9.25-27.66-14.72-44.27-14.72-38.42,0-70,29.34-73.56,66.84h-16.38C17.4,77.88,0,95.28,0,116.75v.26c0,21.47,17.4,38.87,38.87,38.87h239.26c21.47,0,38.87-17.4,38.87-38.87v-1.26c0-21.47-17.4-38.87-38.87-38.87Z"/>
</svg>