<?xml version="1.0" encoding="UTF-8"?>
<svg id="Layer_2" data-name="Layer 2" xmlns="http://www.w3.org/2000/svg" viewBox="0 0 376.26 175.92">
  <defs>
    <style>
      .cls-1 {
        fill: #fff;
        stroke-width: 0px;
      }
    </style>
  </defs>
  <path class="cls-1" d="M111.06,175.92c7.59-10.23,12.08-22.9,12.08-36.62,0-34-27.56-61.57-61.57-61.57S0,105.3,0,139.3c0,13.72,4.49,26.38,12.08,36.62h98.98Z"/>
  <circle class="cls-1" cx="145.83" cy="75.67" r="75.67"/>
  <path class="cls-1" d="M313.67,175.92c6.55-11.09,10.33-24.01,10.33-37.82,0-41.13-33.34-74.46-74.46-74.46s-74.46,33.34-74.46,74.46c0,13.81,3.77,26.73,10.33,37.82h128.28Z"/>
  <path class="cls-1" d="M376.26,175.92c-.47-28.47-23.68-51.41-52.26-51.41s-51.79,22.94-52.26,51.41h104.52Z"/>
  <path class="cls-1" d="M270.24,175.92c-8.18-44.04-49.52-77.55-99.3-77.55s-91.12,33.51-99.3,77.55h198.6Z"/>
</svg>
