<?xml version="1.0" encoding="UTF-8"?>
<svg id="Layer_2" data-name="Layer 2" xmlns="http://www.w3.org/2000/svg" viewBox="0 0 309 166.51">
  <defs>
    <style>
      .cls-1 {
        fill: #fff;
        opacity: .99;
        stroke-width: 0px;
      }
    </style>
  </defs>
  <path class="cls-1" d="M275.15,98.51h-14.12c-7.21-27.15-32.54-46.91-62.25-45.55-7.21.33-14.09,1.93-20.46,4.57C175.83,25.34,148.94,0,116.12,0c-34.47,0-62.41,27.94-62.41,62.41,0,3.5.3,6.93.86,10.27-1.2-.09-2.4-.16-3.62-.16-28.12-.08-50.94,22.69-50.94,50.78,0,5.82.98,11.41,2.79,16.61,3.32,15.21,16.86,26.6,33.06,26.6h239.3c18.69,0,33.85-15.16,33.85-33.85v-.3c0-18.69-15.16-33.85-33.85-33.85Z"/>
</svg>