<svg id="visual" viewBox="0 0 960 300" width="960" height="300" xmlns="http://www.w3.org/2000/svg" xmlns:xlink="http://www.w3.org/1999/xlink" version="1.1"><path d="M0 57L22.8 58.2C45.7 59.3 91.3 61.7 137 62C182.7 62.3 228.3 60.7 274 62.2C319.7 63.7 365.3 68.3 411.2 66C457 63.7 503 54.3 548.8 54.2C594.7 54 640.3 63 686 67C731.7 71 777.3 70 823 67.5C868.7 65 914.3 61 937.2 59L960 57L960 0L937.2 0C914.3 0 868.7 0 823 0C777.3 0 731.7 0 686 0C640.3 0 594.7 0 548.8 0C503 0 457 0 411.2 0C365.3 0 319.7 0 274 0C228.3 0 182.7 0 137 0C91.3 0 45.7 0 22.8 0L0 0Z" fill="#e8817f"></path><path d="M0 40L22.8 42.3C45.7 44.7 91.3 49.3 137 50.7C182.7 52 228.3 50 274 47.5C319.7 45 365.3 42 411.2 43.7C457 45.3 503 51.7 548.8 55C594.7 58.3 640.3 58.7 686 55.7C731.7 52.7 777.3 46.3 823 43.5C868.7 40.7 914.3 41.3 937.2 41.7L960 42L960 0L937.2 0C914.3 0 868.7 0 823 0C777.3 0 731.7 0 686 0C640.3 0 594.7 0 548.8 0C503 0 457 0 411.2 0C365.3 0 319.7 0 274 0C228.3 0 182.7 0 137 0C91.3 0 45.7 0 22.8 0L0 0Z" fill="#cc677d"></path><path d="M0 28L22.8 27.8C45.7 27.7 91.3 27.3 137 27.3C182.7 27.3 228.3 27.7 274 31.2C319.7 34.7 365.3 41.3 411.2 41.2C457 41 503 34 548.8 33.8C594.7 33.7 640.3 40.3 686 42.3C731.7 44.3 777.3 41.7 823 41.3C868.7 41 914.3 43 937.2 44L960 45L960 0L937.2 0C914.3 0 868.7 0 823 0C777.3 0 731.7 0 686 0C640.3 0 594.7 0 548.8 0C503 0 457 0 411.2 0C365.3 0 319.7 0 274 0C228.3 0 182.7 0 137 0C91.3 0 45.7 0 22.8 0L0 0Z" fill="#aa517b"></path><path d="M0 22L22.8 22C45.7 22 91.3 22 137 21C182.7 20 228.3 18 274 19.8C319.7 21.7 365.3 27.3 411.2 29.8C457 32.3 503 31.7 548.8 29C594.7 26.3 640.3 21.7 686 20C731.7 18.3 777.3 19.7 823 20.5C868.7 21.3 914.3 21.7 937.2 21.8L960 22L960 0L937.2 0C914.3 0 868.7 0 823 0C777.3 0 731.7 0 686 0C640.3 0 594.7 0 548.8 0C503 0 457 0 411.2 0C365.3 0 319.7 0 274 0C228.3 0 182.7 0 137 0C91.3 0 45.7 0 22.8 0L0 0Z" fill="#844076"></path><path d="M0 7L22.8 7.8C45.7 8.7 91.3 10.3 137 11.3C182.7 12.3 228.3 12.7 274 12.8C319.7 13 365.3 13 411.2 12.8C457 12.7 503 12.3 548.8 12.3C594.7 12.3 640.3 12.7 686 13.7C731.7 14.7 777.3 16.3 823 15.7C868.7 15 914.3 12 937.2 10.5L960 9L960 0L937.2 0C914.3 0 868.7 0 823 0C777.3 0 731.7 0 686 0C640.3 0 594.7 0 548.8 0C503 0 457 0 411.2 0C365.3 0 319.7 0 274 0C228.3 0 182.7 0 137 0C91.3 0 45.7 0 22.8 0L0 0Z" fill="#5a336e"></path></svg>