<?xml version="1.0" encoding="UTF-8"?>
<svg xmlns="http://www.w3.org/2000/svg" viewBox="0 0 564.99 564.99">
  <defs>
    <style>
      .cls-1 {
        fill: #000;
      }

      .cls-1, .cls-2, .cls-3, .cls-4, .cls-5 {
        stroke-width: 0px;
      }

      .cls-6 {
        fill: none;
        stroke: #000;
        stroke-linecap: round;
        stroke-miterlimit: 10;
        stroke-width: 12px;
      }

      .cls-7 {
        isolation: isolate;
      }

      .cls-2 {
        fill: #7171ff;
        mix-blend-mode: multiply;
      }

      .cls-3 {
        fill: #ffd96e;
      }

      .cls-4 {
        fill: #d89444;
      }

      .cls-5 {
        fill: #fcad72;
      }
    </style>
  </defs>
  <g class="cls-7">
    <g id="Layer_1" data-name="Layer 1">
      <path class="cls-4" d="M564.99,282.49c0,50.43-13.22,97.78-36.38,138.76-7.54,13.36-16.14,26.05-25.69,37.94-3.26,4.05-6.62,8.01-10.08,11.87-51.71,57.66-126.79,93.93-210.34,93.93C126.48,564.99,0,438.51,0,282.49,0,200.16,35.21,126.07,91.4,74.45c15.09-13.87,31.7-26.12,49.54-36.47C177.58,16.72,219.43,3.46,264.11.59c6.08-.39,12.21-.59,18.39-.59,156.01,0,282.49,126.47,282.49,282.49Z"/>
      <path class="cls-3" d="M564.99,282.49c0,50.43-13.22,97.78-36.38,138.76-7.54,13.36-16.14,26.05-25.69,37.94-50.28,46.21-117.37,74.41-191.05,74.41-156.02,0-282.5-126.48-282.5-282.5,0-66.85,23.22-128.28,62.03-176.65,15.09-13.87,31.7-26.12,49.54-36.47C177.58,16.72,219.43,3.46,264.11.59c6.08-.39,12.21-.59,18.39-.59,156.01,0,282.49,126.47,282.49,282.49Z"/>
      <circle class="cls-1" cx="201.97" cy="230.85" r="20.25"/>
      <circle class="cls-1" cx="363.02" cy="230.85" r="20.25"/>
      <circle class="cls-5" cx="136.66" cy="296.16" r="45.06"/>
      <circle class="cls-5" cx="428.33" cy="296.16" r="45.06"/>
      <line class="cls-6" x1="201.97" y1="349.39" x2="363.02" y2="349.39"/>
      <path class="cls-2" d="M564.99,282.49c0,50.43-13.22,97.78-36.38,138.76-6.08.4-12.21.6-18.38.6-156.02,0-282.5-126.48-282.5-282.5,0-50.43,13.22-97.78,36.38-138.76,6.08-.39,12.21-.59,18.39-.59,156.01,0,282.49,126.47,282.49,282.49Z"/>
    </g>
  </g>
</svg>