<?xml version="1.0" encoding="UTF-8"?>
<svg id="Layer_1" data-name="Layer 1" xmlns="http://www.w3.org/2000/svg" viewBox="0 0 564.99 564.99">
  <defs>
    <style>
      .cls-1 {
        fill: #000;
      }

      .cls-1, .cls-2, .cls-3, .cls-4, .cls-5 {
        stroke-width: 0px;
      }

      .cls-6 {
        fill: none;
        stroke: #000;
        stroke-linecap: round;
        stroke-miterlimit: 10;
        stroke-width: 12px;
      }

      .cls-2 {
        fill: #ffd96e;
      }

      .cls-3 {
        fill: #d89444;
      }

      .cls-4 {
        fill: #fcad72;
      }

      .cls-5 {
        fill: #fff;
      }
    </style>
  </defs>
  <path class="cls-3" d="M564.99,282.49c0,72.47-27.29,138.57-72.15,188.57-51.71,57.66-126.79,93.93-210.34,93.93C126.48,564.99,0,438.51,0,282.49,0,178.05,56.67,86.86,140.94,37.98,182.56,13.83,230.92,0,282.5,0c156.01,0,282.49,126.47,282.49,282.49Z"/>
  <path class="cls-2" d="M564.99,282.49c0,72.47-27.29,138.57-72.15,188.57-41.62,24.15-89.97,37.98-141.55,37.98-156.02,0-282.5-126.48-282.5-282.5,0-72.47,27.29-138.56,72.15-188.56C182.56,13.83,230.92,0,282.5,0c156.01,0,282.49,126.47,282.49,282.49Z"/>
  <circle class="cls-1" cx="201.97" cy="230.85" r="20.25"/>
  <circle class="cls-5" cx="209.85" cy="225.36" r="7.88"/>
  <circle class="cls-1" cx="363.02" cy="230.85" r="20.25"/>
  <circle class="cls-5" cx="370.9" cy="225.36" r="7.88"/>
  <circle class="cls-4" cx="136.66" cy="296.16" r="45.06"/>
  <circle class="cls-4" cx="428.33" cy="296.16" r="45.06"/>
  <path class="cls-6" d="M201.97,341.22c0,103.18,158.46,107.74,161.05,0"/>
</svg>